<svg width="20" height="20" viewBox="0 0 20 20" fill="none" xmlns="http://www.w3.org/2000/svg">
<path d="M9.99935 4.57502V17.075M6.45768 7.07502H4.58268M7.08268 9.57502H4.58268M18.3327 13.95V3.89168C18.3327 2.89168 17.516 2.15001 16.5243 2.23335H16.4743C14.7243 2.38335 12.066 3.27502 10.5827 4.20835L10.441 4.30002C10.1993 4.45002 9.79935 4.45002 9.55768 4.30002L9.34935 4.17502C7.86601 3.25002 5.21601 2.36668 3.46602 2.22501C2.47435 2.14168 1.66602 2.89168 1.66602 3.88335V13.95C1.66602 14.75 2.31602 15.5 3.11602 15.6L3.35768 15.6334C5.16602 15.875 7.95768 16.7917 9.55768 17.6667L9.59101 17.6833C9.81601 17.8083 10.1743 17.8083 10.391 17.6833C11.991 16.8 14.791 15.875 16.6077 15.6334L16.8827 15.6C17.6827 15.5 18.3327 14.75 18.3327 13.95Z" stroke="#A6ABAD" stroke-width="1.5" stroke-linecap="round" stroke-linejoin="round"/>
</svg>
