<svg width="24" height="24" viewBox="0 0 24 24" fill="none" xmlns="http://www.w3.org/2000/svg">
<path d="M22.0003 4.84999V16.74C22.0003 17.71 21.2103 18.6 20.2403 18.72L19.9303 18.76C18.2903 18.98 15.9803 19.66 14.1203 20.44C13.4703 20.71 12.7503 20.22 12.7503 19.51V5.59999C12.7503 5.22999 12.9603 4.88999 13.2903 4.70999C15.1203 3.71999 17.8903 2.83999 19.7703 2.67999H19.8303C21.0303 2.67999 22.0003 3.64999 22.0003 4.84999ZM10.7083 4.70999C8.87828 3.71999 6.10828 2.83999 4.22828 2.67999H4.15828C2.95828 2.67999 1.98828 3.64999 1.98828 4.84999V16.74C1.98828 17.71 2.77828 18.6 3.74828 18.72L4.05828 18.76C5.69828 18.98 8.00828 19.66 9.86828 20.44C10.5183 20.71 11.2383 20.22 11.2383 19.51V5.59999C11.2396 5.41739 11.1909 5.23791 11.0975 5.08102C11.0041 4.92413 10.8695 4.79581 10.7083 4.70999ZM4.99828 7.73999H7.24828C7.44719 7.73999 7.63796 7.81901 7.77861 7.95966C7.91926 8.10031 7.99828 8.29108 7.99828 8.48999C7.99828 8.6889 7.91926 8.87967 7.77861 9.02032C7.63796 9.16097 7.44719 9.23999 7.24828 9.23999H4.99828C4.79937 9.23999 4.6086 9.16097 4.46795 9.02032C4.3273 8.87967 4.24828 8.6889 4.24828 8.48999C4.24828 8.29108 4.3273 8.10031 4.46795 7.95966C4.6086 7.81901 4.79937 7.73999 4.99828 7.73999ZM7.99828 12.24H4.99828C4.79937 12.24 4.6086 12.161 4.46795 12.0203C4.3273 11.8797 4.24828 11.6889 4.24828 11.49C4.24828 11.2911 4.3273 11.1003 4.46795 10.9597C4.6086 10.819 4.79937 10.74 4.99828 10.74H7.99828C8.19719 10.74 8.38796 10.819 8.52861 10.9597C8.66926 11.1003 8.74828 11.2911 8.74828 11.49C8.74828 11.6889 8.66926 11.8797 8.52861 12.0203C8.38796 12.161 8.19719 12.24 7.99828 12.24Z" fill="white"/>
</svg>
