<svg width="19" height="18" viewBox="0 0 19 18" fill="none" xmlns="http://www.w3.org/2000/svg">
<path fill-rule="evenodd" clip-rule="evenodd" d="M13.974 0H4.98874C2.51801 0 0.496094 2.02432 0.496094 4.5V13.5C0.496094 15.9748 2.51801 18 4.98874 18H13.974C16.4448 18 18.4667 15.9748 18.4667 13.5V4.5C18.4667 2.02432 16.4448 0 13.974 0ZM9.48061 12.7499C7.41264 12.7499 5.73666 11.0705 5.73666 9.00008C5.73666 6.92873 7.41264 5.25 9.48061 5.25C11.5477 5.25 13.2246 6.92873 13.2246 9.00008C13.2246 11.0705 11.5477 12.7499 9.48061 12.7499ZM13.2262 4.125C13.2262 4.74622 13.7285 5.25 14.3494 5.25C14.9703 5.25 15.4725 4.74622 15.4725 4.125C15.4725 3.50378 14.9703 3 14.3494 3C13.7285 3 13.2262 3.50378 13.2262 4.125Z" fill="#0A142F"/>
</svg>
