<svg width="21" height="16" viewBox="0 0 21 16" fill="none" xmlns="http://www.w3.org/2000/svg">
<path d="M18.028 3.99704C18.041 4.17204 18.041 4.34604 18.041 4.52004C18.041 9.84504 13.9946 15.981 6.59972 15.981C4.32145 15.981 2.20491 15.32 0.423828 14.172C0.747299 14.209 1.05879 14.222 1.39524 14.222C3.27516 14.222 5.00533 13.586 6.38806 12.501C4.61996 12.464 3.13838 11.304 2.62722 9.70804C2.87581 9.74504 3.12541 9.77004 3.38698 9.77004C3.74739 9.77004 4.10979 9.72004 4.44624 9.63304C2.60226 9.25904 1.22152 7.63804 1.22152 5.68004V5.63004C1.75764 5.92904 2.37963 6.11604 3.03855 6.14104C1.95532 5.41904 1.24548 4.18404 1.24548 2.78704C1.24548 2.03904 1.44416 1.35304 1.79259 0.755043C3.77235 3.19804 6.74847 4.79504 10.085 4.97004C10.0231 4.67004 9.98518 4.35904 9.98518 4.04704C9.98518 1.82704 11.7782 0.019043 14.0066 0.019043C15.1647 0.019043 16.21 0.505043 16.9448 1.29104C17.8533 1.11604 18.7239 0.779043 19.4966 0.318043C19.1981 1.25304 18.5621 2.03904 17.7285 2.53804C18.5382 2.45004 19.3229 2.22604 20.0437 1.91404C19.4966 2.71204 18.8127 3.42304 18.028 3.99704Z" fill="#0A142F"/>
</svg>
